<?xml version="1.0" standalone="no"?>
<!DOCTYPE svg PUBLIC "-//W3C//DTD SVG 20010904//EN"
 "http://www.w3.org/TR/2001/REC-SVG-20010904/DTD/svg10.dtd">
<svg version="1.0" xmlns="http://www.w3.org/2000/svg"
 width="180.000000pt" height="180.000000pt" viewBox="0 0 180.000000 180.000000"
 preserveAspectRatio="xMidYMid meet">
<metadata>
Created by potrace 1.14, written by Peter Selinger 2001-2017
</metadata>
<g transform="translate(0.000000,180.000000) scale(0.100000,-0.100000)"
fill="#000000" stroke="none">
<path d="M102 1779 c-26 -13 -55 -39 -70 -62 l-27 -41 0 -775 0 -776 23 -37
c13 -21 42 -49 65 -63 l42 -25 758 0 c817 0 797 -1 854 52 55 51 54 39 51 868
l-3 765 -25 33 c-14 18 -41 43 -60 55 l-35 22 -765 3 -765 2 -43 -21z"/>
</g>
</svg>
